<svg width="28" height="28" viewBox="0 0 28 28" fill="none" xmlns="http://www.w3.org/2000/svg">
<rect width="28" height="28" rx="4" fill="#F5C344"/>
<path d="M8.46038 19.2C8.50788 19.2 8.55538 19.1952 8.60288 19.1881L12.5976 18.4875C12.6451 18.478 12.6903 18.4566 12.7235 18.421L22.7911 8.35337C22.8131 8.3314 22.8306 8.3053 22.8425 8.27657C22.8544 8.24784 22.8606 8.21704 22.8606 8.18594C22.8606 8.15483 22.8544 8.12403 22.8425 8.0953C22.8306 8.06657 22.8131 8.04047 22.7911 8.0185L18.8439 4.06888C18.7988 4.02375 18.7394 4 18.6752 4C18.6111 4 18.5518 4.02375 18.5066 4.06888L8.439 14.1365C8.40337 14.1721 8.382 14.2149 8.3725 14.2624L7.67188 18.2571C7.64877 18.3844 7.65703 18.5153 7.69593 18.6386C7.73483 18.7619 7.8032 18.8739 7.89512 18.9649C8.05187 19.1169 8.249 19.2 8.46038 19.2ZM10.0611 15.058L18.6752 6.44625L20.4161 8.18712L11.802 16.7989L9.69062 17.1717L10.0611 15.058ZM23.24 21.195H5.76C5.33962 21.195 5 21.5346 5 21.955V22.81C5 22.9145 5.0855 23 5.19 23H23.81C23.9145 23 24 22.9145 24 22.81V21.955C24 21.5346 23.6604 21.195 23.24 21.195Z" fill="#31393E"/>
</svg>
