<svg width="28" height="28" viewBox="0 0 28 28" fill="none" xmlns="http://www.w3.org/2000/svg">
<rect width="28" height="28" rx="4" fill="#E71919"/>
<path d="M11.1428 11.4286H12.4285V19.1429H11.1428V11.4286Z" fill="#F7F7F7"/>
<path d="M15 11.4286H16.2857V19.1429H15V11.4286Z" fill="#F7F7F7"/>
<path d="M6 7.57143V8.85714H7.28571V21.7143C7.28571 22.0553 7.42117 22.3823 7.66229 22.6234C7.90341 22.8645 8.23044 23 8.57143 23H18.8571C19.1981 23 19.5252 22.8645 19.7663 22.6234C20.0074 22.3823 20.1429 22.0553 20.1429 21.7143V8.85714H21.4286V7.57143H6ZM8.57143 21.7143V8.85714H18.8571V21.7143H8.57143Z" fill="#F7F7F7"/>
<path d="M11.1428 5H16.2857V6.28571H11.1428V5Z" fill="#F7F7F7"/>
</svg>
